<svg width="25" height="24" viewBox="0 0 25 24" fill="none" xmlns="http://www.w3.org/2000/svg">
<rect x="0.5" y="24" width="24" height="24" rx="6" transform="rotate(-90 0.5 24)" fill="#141526"/>
<path d="M7.6957 9.83443C7.63367 9.89631 7.58445 9.96982 7.55087 10.0508C7.51729 10.1317 7.5 10.2184 7.5 10.3061C7.5 10.3937 7.51729 10.4804 7.55087 10.5614C7.58445 10.6423 7.63367 10.7158 7.6957 10.7777L12.1242 15.2062C12.1735 15.2556 12.2321 15.2948 12.2966 15.3216C12.361 15.3483 12.4301 15.3621 12.4999 15.3621C12.5697 15.3621 12.6388 15.3483 12.7033 15.3216C12.7678 15.2948 12.8263 15.2556 12.8756 15.2062L17.3042 10.7777C17.5653 10.5166 17.5653 10.0956 17.3042 9.83443C17.043 9.5733 16.622 9.5733 16.3609 9.83443L12.4973 13.6927L8.63363 9.8291C8.37783 9.57331 7.9515 9.5733 7.6957 9.83443Z" fill="#E8F1F2"/>
</svg>
