<svg width="7" height="10" viewBox="0 0 7 10" fill="none" xmlns="http://www.w3.org/2000/svg">
<path d="M6.16557 0.195705C6.10369 0.133669 6.03018 0.0844505 5.94925 0.0508683C5.86832 0.0172861 5.78156 0 5.69394 0C5.60632 0 5.51956 0.0172861 5.43863 0.0508683C5.3577 0.0844505 5.28419 0.133669 5.22231 0.195705L0.793787 4.62422C0.744384 4.67353 0.70519 4.73209 0.678447 4.79656C0.651705 4.86102 0.637939 4.93013 0.637939 4.99993C0.637939 5.06972 0.651705 5.13883 0.678447 5.2033C0.70519 5.26777 0.744384 5.32633 0.793787 5.37563L5.22231 9.80415C5.48344 10.0653 5.90444 10.0653 6.16557 9.80415C6.4267 9.54303 6.4267 9.12202 6.16557 8.8609L2.30727 4.99726L6.1709 1.13363C6.42669 0.877835 6.4267 0.451504 6.16557 0.195705Z" fill="#E8F1F2"/>
</svg>
