<svg width="24" height="25" viewBox="0 0 24 25" fill="none" xmlns="http://www.w3.org/2000/svg">
<path d="M11 3.22506C10.9983 2.67278 11.4446 2.22366 11.9969 2.22193C12.5492 2.2202 12.9983 2.66651 13 3.21879L11 3.22506Z" fill="#98A0A8"/>
<path d="M14.3158 10.5076L13.0269 11.8045L13 3.21881L11 3.22508L11.0269 11.8108L9.73006 10.522C9.33831 10.1327 8.70513 10.1347 8.31583 10.5264C7.92653 10.9181 7.92852 11.5513 8.32027 11.9406L8.32278 11.9431L8.32377 11.9441L12.039 15.6361L15.7206 11.9312L15.7262 11.9256L15.727 11.9248L15.7278 11.924L15.7337 11.9181L14.3158 10.5076Z" fill="#98A0A8"/>
<path d="M15.7344 11.9174C16.1237 11.5256 16.1217 10.8924 15.73 10.5031C15.3382 10.1138 14.705 10.1158 14.3158 10.5076L15.7344 11.9174Z" fill="#98A0A8"/>
<path d="M4 12.2125C4 11.1079 4.89543 10.2125 6 10.2125C6.55228 10.2125 7 9.7648 7 9.21252C7 8.66023 6.55228 8.21252 6 8.21252C3.79086 8.21252 2 10.0034 2 12.2125V18.2125C2 20.4216 3.79086 22.2125 6 22.2125H17C19.7614 22.2125 22 19.9739 22 17.2125V12.2125C22 10.0034 20.2091 8.21252 18 8.21252C17.4477 8.21252 17 8.66023 17 9.21252C17 9.7648 17.4477 10.2125 18 10.2125C19.1046 10.2125 20 11.1079 20 12.2125V17.2125C20 18.8694 18.6569 20.2125 17 20.2125H6C4.89543 20.2125 4 19.3171 4 18.2125V12.2125Z" fill="#98A0A8"/>
</svg>
